HIERARCHY
ROOT HipCenter
{
    OFFSET 0.0 0.0 -0.0
    CHANNELS 6 Xposition Yposition Zposition Zrotation Xrotation Yrotation
    JOINT Spine
    {
        OFFSET 0.0 30.444869995117188 0.0
        CHANNELS 3 Zrotation Xrotation Yrotation
        JOINT ShoulderCenter
        {
            OFFSET 0.0 22.355236053466797 0.0
            CHANNELS 3 Zrotation Xrotation Yrotation
            JOINT LeftShoulder
            {
                OFFSET 15.61764907836914 0.0 0.0
                CHANNELS 3 Zrotation Xrotation Yrotation
                JOINT LeftElbow
                {
                    OFFSET 21.861719131469727 0.0 0.0
                    CHANNELS 3 Zrotation Xrotation Yrotation
                    JOINT LeftWrist
                    {
                        OFFSET 19.42044448852539 0.0 0.0
                        CHANNELS 3 Zrotation Xrotation Yrotation
                        JOINT LeftHand
                        {
                            OFFSET 5.216500282287598 0.0 0.0
                            CHANNELS 3 Zrotation Xrotation Yrotation
                            End Site
                            {
                                OFFSET 2.086599826812744 0.0 0.0
                            }
                        }
                    }
                }
            }
            JOINT RightShoulder
            {
                OFFSET -15.61764907836914 0.0 0.0
                CHANNELS 3 Zrotation Xrotation Yrotation
                JOINT RightElbow
                {
                    OFFSET -21.861719131469727 0.0 0.0
                    CHANNELS 3 Zrotation Xrotation Yrotation
                    JOINT RightWrist
                    {
                        OFFSET -19.42044448852539 0.0 0.0
                        CHANNELS 3 Zrotation Xrotation Yrotation
                        JOINT RightHand
                        {
                            OFFSET -5.216500282287598 0.0 0.0
                            CHANNELS 3 Zrotation Xrotation Yrotation
                            End Site
                            {
                                OFFSET -2.086599826812744 0.0 0.0
                            }
                        }
                    }
                }
            }
            End Site
            {
                OFFSET 0.0 8.942093849182129 0.0
            }
        }
    }
    JOINT LeftHip
    {
        OFFSET 8.146317481994629 0.0 0.0
        CHANNELS 3 Zrotation Xrotation Yrotation
        JOINT LeftKnee
        {
            OFFSET 0.0 -29.595874786376953 0.0
            CHANNELS 3 Zrotation Xrotation Yrotation
            JOINT LeftAnkle
            {
                OFFSET 0.0 -30.349882125854492 0.0
                CHANNELS 3 Zrotation Xrotation Yrotation
                JOINT LeftFoot
                {
                    OFFSET 0.0 -11.187576293945312 0.0
                    CHANNELS 3 Zrotation Xrotation Yrotation
                    End Site
                    {
                        OFFSET 0.0 0.0 4.475029945373535
                    }
                }
            }
        }
    }
    JOINT RightHip
    {
        OFFSET -8.146317481994629 0.0 0.0
        CHANNELS 3 Zrotation Xrotation Yrotation
        JOINT RightKnee
        {
            OFFSET 0.0 -29.595874786376953 0.0
            CHANNELS 3 Zrotation Xrotation Yrotation
            JOINT RightAnkle
            {
                OFFSET 0.0 -30.349882125854492 0.0
                CHANNELS 3 Zrotation Xrotation Yrotation
                JOINT RightFoot
                {
                    OFFSET 0.0 -11.187576293945312 0.0
                    CHANNELS 3 Zrotation Xrotation Yrotation
                    End Site
                    {
                        OFFSET 0.0 0.0 4.475029945373535
                    }
                }
            }
        }
    }
}
MOTION
Frames: 10
Frame Time: 0.03333333333333333
-2.529600143432617 -12.658900260925293 -258.76220703125 0.37687392719195817 0.9268763507645476 -179.79192996032506 -0.08554541612782926 -2.416713398541011 0.03193226351816099 3.8596742321178855e-08 1.067453585873973e-07 0.060666836990572674 -61.490847164621435 21.141899098250647 89.82871823185712 1.080967903511942e-06 3.8068292638317763e-06 113.70082476412169 -7.085524698984849e-06 36.98897758661774 11.282829099573238 6.3611093629270335e-15 4.855296927855174e-31 8.74652537402467e-15 56.97649444863048 25.70727544056406 -83.40614743854522 9.689076567642204e-07 -4.610692006751043e-06 -117.56284323792114 179.99998560448535 76.74618557183277 156.3143555793695 -3.1805546814635164e-15 6.3611093629270335e-15 -6.3611093629270335e-15 4.927123818502919 -12.668294494645657 25.407800258324833 1.5269412693801945 8.536964764597093 0.03983645621333032 39.315912881832375 45.49479310503853 -30.052378957597373 1.5902773407317584e-15 1.1034765745125397e-32 7.951386703658792e-16 -2.7941828022121773 -11.254698852791233 -24.622224901332213 -3.0963157524378655 7.48302719191963 -0.1881145459313926 -37.62287188978577 39.59092412635361 24.998745380214025 1.3241718894150476e-31 6.3611093629270335e-15 -2.3854160110976376e-15
-2.518899917602539 -12.645000457763672 -258.67669677734375 0.383703773166224 0.800492904904181 -179.71609661708956 -0.07333517202889289 -2.4504697130566635 0.03481608404477406 3.611891649011475e-08 2.8906227905110205e-08 -0.08246332609466184 -61.13132390248877 21.43756884854935 90.12171860259039 1.8700653412694902e-06 -5.359156083748826e-06 114.12730571148444 5.3229763486819e-06 35.47992724815326 10.263415599862059 6.361109362927035e-15 2.5104092070160276e-31 4.5223511877059384e-15 56.98305113261216 25.716847069157076 -84.20108548899573 1.9311617880050103e-06 -1.1143915925397947e-08 -117.54660734815943 -179.99999534747343 85.19663885418908 155.7036946412259 -3.1805546814635168e-15 1.7655625192200634e-31 -6.3611093629270335e-15 4.9422779418902865 -12.827119905538888 25.414887220772208 1.4789642287151368 8.564683033637575 0.04035149187953614 39.105738745227356 45.06959714304774 -29.682612579869375 0.0 0.0 0.0 -2.722024525375041 -11.39364476118383 -24.61668444890295 -3.165819581807569 7.370955570393732 -0.1903861654712451 -37.616859853592125 39.62800583286988 24.979294512722664 -1.5902773407317582e-15 1.1034765745125397e-32 -7.951386703658791e-16
-2.52239990234375 -12.639400482177734 -258.527099609375 0.35167282986834325 0.6033479475357598 -179.91948347802298 -0.07712329726166336 -2.5086505322278145 0.03908934271199072 3.3391801811964365e-09 -1.3795399893350658e-07 0.08318658552569128 -60.79004447159165 21.716339703164262 90.3730672574223 3.856508597985388e-06 -3.222900567164193e-06 114.25290957425833 3.986300610945542e-06 38.28718345758011 10.184478860882514 -1.6552148617688095e-32 -1.5902773407317584e-15 -1.1927080055488188e-15 53.243146037019045 32.61945189252242 -104.44205345284023 1.042881831478276e-06 -2.646337701923932e-06 -105.24330245029319 179.99999416329587 11.853132397280797 137.90598684699196 4.770832022195275e-15 -1.3241718894150476e-31 -3.1805546814635168e-15 4.888932708272039 -12.904219162787044 25.470844347614037 1.4411569821136294 8.245124471711593 0.035498758512310186 38.51225437317032 44.981223088794586 -29.144078083365443 -7.951386703658792e-16 0.0 0.0 -2.663496539789287 -11.699058109121651 -24.54730045564983 -3.2878187466013395 7.398253688050897 -0.19647085917632223 -37.70114453704854 39.29356192113449 24.85849534873905 7.951386703658792e-16 -5.517382872562698e-33 -7.951386703658792e-16
-2.5348000526428223 -12.639699935913086 -258.18267822265625 0.2893213502090924 0.14413685157628178 -179.7511614263533 -0.13829809367404597 -2.698530996236856 0.04302644039295288 -1.3344544276387264e-08 7.639121101986238e-08 -0.12063757599044948 -60.5187984037784 21.88176762804804 90.4875034311393 5.731825775366712e-07 -4.941037451330613e-06 114.33170502331978 5.169954779790835e-06 45.67262284870809 10.588215423695484 -3.310429723537619e-32 -3.1805546814635168e-15 -1.1927080055488188e-15 58.354663110804964 25.806334092721254 -87.20348251211671 -5.717073077154204e-06 5.152670245960829e-07 -118.90968374138083 -179.99999748358897 74.82751165884926 156.91373551385237 1.7655625192200634e-31 6.3611093629270335e-15 -3.1805546814635168e-15 4.741008979199925 -13.747685561000935 25.424538256297197 1.5247620054431672 8.324073724685089 0.05494776937867735 39.10129718332276 44.98696635830102 -29.548557257126042 -4.4139062980501586e-32 6.3611093629270335e-15 7.951386703658792e-16 -2.7748887857355578 -12.508871278360921 -24.533147200515966 -3.3521318915844627 7.760759785223143 -0.21401565966244002 -37.39358896101642 38.97278368729427 24.41844855562884 -7.951386703658792e-16 5.517382872562698e-33 -7.951386703658792e-16
-2.526099920272827 -12.604400634765625 -257.9848937988281 0.26446220471132714 -0.0793715697639143 179.99306896125339 -0.15089213846314947 -2.7143826109156755 0.04746514004594813 6.134751553273597e-09 5.669273314999944e-08 0.12181280191574433 -60.47938352333967 22.025143224163056 90.87265287385961 8.017601842225237e-07 1.8707782488553036e-06 114.13205053246334 3.0727483384985386e-06 48.16527889180679 9.36107470648512 0.0 0.0 1.5902773407317582e-15 58.20490144521335 25.71238833601711 -86.95619981428764 -8.003731481950871e-07 2.6366225994443757e-06 -118.93217058679006 179.99999867242258 77.55153810542197 154.71775977906583 3.1805546814635168e-15 2.648343778830095e-31 9.54166404439055e-15 4.930694683712509 -13.768730590210842 25.566667290730216 1.1266601046368587 7.977232667059249 0.06312244323779413 38.61496841259684 45.284465450354375 -29.18257497304967 0.0 0.0 -7.951386703658794e-16 -2.7186317868437087 -12.97562426701165 -24.453363804864086 -3.4626942265981167 7.890196786443179 -0.23400369099469562 -37.51133827634766 38.861778341819566 24.366525806080492 -7.951386703658792e-16 0.0 0.0
-2.5037999153137207 -12.627899169921875 -257.7490234375 0.23883123268876058 -0.36511666773365087 -179.77724344582742 -0.1654703116276291 -2.7619398956999808 0.04400664116805712 1.207173623254142e-08 -1.2405278021495783e-07 -0.14000804771562864 -60.05355893090068 22.40114124948302 91.06316304020459 1.6286538782823738e-06 5.536985176456322e-07 114.06392754560882 -7.289574412970212e-06 48.746453939044216 8.789758661657013 0.0 0.0 -3.1805546814635164e-15 58.1391137291578 25.617033431244444 -86.70982502040751 -4.349820039100531e-06 -1.4262564039688453e-06 -119.40254685315065 179.9999985100797 74.04569308300422 154.33628203279022 0.0 0.0 -3.1805546814635168e-15 4.867732116933366 -14.329358992999653 25.476613264112032 1.1334628053908682 7.98029660275631 0.09444933779152094 39.04757972681754 45.50217774022116 -29.458081154020828 -2.3854160110976376e-15 -1.6552148617688095e-32 7.951386703658792e-16 -2.7549223634683044 -13.405985650546418 -24.480246858963945 -3.478261336374425 7.867570437536208 -0.2281255440249221 -37.46022781601135 39.28318016396994 24.551389783091683 1.5902773407317582e-15 -2.2069531490250793e-32 -1.5902773407317582e-15
-2.4969000816345215 -12.61929988861084 -257.62890625 0.20894809446943644 -0.5031572758745417 -179.97513922143466 -0.14431206696324436 -2.7412173605518935 0.04791703795519319 -5.733875225662024e-09 -3.2892735069705114e-08 0.06566117379601605 -59.774117994389 22.833732333628728 91.39412524979672 2.068179825827898e-06 -1.511182926859241e-06 113.91748663324331 -2.388933530941124e-07 45.61129157134764 10.137883736320449 0.0 0.0 3.975693351829396e-16 58.19007689943677 25.437405099096672 -86.6028518411827 -4.047789447804847e-06 -4.79481469694314e-06 -119.71045474731785 179.99998741927575 79.9647429165952 153.749570874584 3.1805546814635168e-15 -6.3611093629270335e-15 -3.1805546814635168e-15 4.798391431520471 -14.442223156728282 25.527626571576008 1.246895382142427 7.904736672676685 0.07877992675981713 38.52612126811775 45.08086292573276 -28.916734532135614 0.0 0.0 0.0 -2.7030274519588864 -13.707008492434351 -24.415974118772 -3.5731877389348803 7.954636235908612 -0.2404103587971211 -37.31446256889493 38.87534489800441 24.19181840124231 7.951386703658794e-16 -6.3611093629270335e-15 3.1805546814635168e-15
-2.509000062942505 -12.55780029296875 -257.6567077636719 0.26356114878537185 -0.7018763246625541 -179.9560249323108 -0.20555085884604105 -2.050891506687911 0.028588432481142394 -6.679153078139541e-08 -1.6788944487257633e-08 -0.08391838577573728 -59.80157335961521 24.271284805350636 89.43537661909797 -3.7894157682750405e-07 -3.1908180672864462e-06 116.4743037074535 -3.105828789919695e-06 46.51788122557976 9.3124762057762 6.361109362927032e-15 4.4139062980501586e-32 7.95138670365879e-16 55.84285925914222 27.423273186005968 -77.40590415042998 -3.8001830435808665e-06 -1.635080169648831e-06 -121.73531558842474 179.9999902525215 88.29915318015397 148.35728228395763 -8.827812596100317e-32 -3.1805546814635168e-15 -3.1805546814635168e-15 4.821701673164688 -14.654891811198766 25.511353391303675 1.217997188838752 7.61745128314727 0.09458559414438734 38.13669818991132 45.259762224128 -28.53068087695902 1.5902773407317588e-15 0.0 0.0 -2.7224637722748386 -14.039852055503879 -24.443752944781505 -3.496055841325665 7.7811700482486765 -0.23400391987618988 -36.62791658172235 38.013346666498855 23.261645098320017 1.5902773407317588e-15 -1.1034765745125397e-32 -7.951386703658794e-16
-2.471100091934204 -12.540000915527344 -257.4980163574219 0.22849597275388245 -0.8405978042590666 -179.81910690093972 -0.16995974653176732 -2.069862826553618 0.03090227707425087 7.39278622111611e-09 2.5224754756986462e-09 -0.17846220560172849 -60.10772916624701 24.154363283239064 90.45802429748372 6.908750010364351e-07 1.1010401819676819e-06 116.21478495958957 -9.103916359592313e-06 43.092797520842325 9.761706763100552 6.361109362927033e-15 4.4139062980501586e-32 7.951386703658791e-16 56.149195046302026 26.934655068355667 -76.97239627739455 1.695565821430205e-06 -5.963429282788235e-06 -122.07369296169885 -179.99987655412266 89.01445990114128 151.81986813550697 -6.3611093629270335e-15 -3.1805546814635168e-15 6.3611093629270335e-15 4.802674866209513 -15.02407949891778 25.502502773345284 1.3173549823127682 7.816466226690327 0.09624119766634523 37.815510032649485 44.90287022566561 -28.109046641953768 0.0 0.0 0.0 -2.766710974963404 -14.327018362756856 -24.474405043414404 -3.5155025924953986 7.973698309125741 -0.243872224901193 -36.957998121279275 38.5153269657216 23.72877029481121 -3.975693351829396e-15 6.3611093629270335e-15 1.5902773407317588e-15
-2.437700033187866 -12.523500442504883 -257.4549865722656 0.2093586436784765 -0.8571645629733697 -179.87967850675858 -0.1289736807640522 -2.037433935498778 0.03274290747953169 -4.8274730605930446e-08 -1.1750263918740328e-07 -0.18000677251738034 -60.12999850168528 23.934569872030366 90.9495499815333 7.55361724894768e-07 1.6631254682920794e-07 115.83649768682842 7.112455109238531e-06 44.854307826017866 7.550534121498522 1.2722218725854067e-14 4.413906298050159e-31 3.975693351829396e-15 56.7776034374271 27.06518151587198 -79.29587095725643 -1.0144858543365204e-06 2.122557492843279e-06 -122.08842784056979 179.99999160611765 84.91271055029786 154.05080660475747 6.361109362927033e-15 1.7655625192200634e-31 3.1805546814635164e-15 4.8551808451148135 -15.048928579896813 25.555661401014987 1.2958119035347917 7.828497095828326 0.09186316712385294 37.830770342205255 44.87968246241899 -28.14101404462667 7.951386703658791e-16 1.1034765745125397e-32 1.5902773407317582e-15 -2.7219106644713125 -14.397831837450985 -24.468794408435386 -3.5737884390541605 8.008578645029324 -0.24863884767239883 -36.83963038750823 38.27913425521887 23.506649575051643 0.0 0.0 2.3854160110976376e-15
